<?xml version="1.0" encoding="utf-8" ?>
<svg baseProfile="tiny" height="100%" version="1.2" width="100%" xmlns="http://www.w3.org/2000/svg" xmlns:ev="http://www.w3.org/2001/xml-events" xmlns:xlink="http://www.w3.org/1999/xlink"><defs /><path d="M 341,428 341,429 339,431 339,432 337,434 337,435 336,436 336,437 334,439 334,440 332,442 332,443 330,445 330,446 328,448 328,449 327,450 327,451 355,479 355,480 356,480 358,482 358,483 371,496 372,496 375,499 376,499 377,500 378,500 379,501 380,501 381,502 382,502 383,503 386,503 387,504 395,504 396,503 398,503 399,502 400,502 406,496 406,494 407,493 407,491 408,490 408,486 409,485 409,478 408,477 408,470 407,469 407,465 406,464 406,463 405,462 405,460 404,459 404,457 403,456 403,455 402,454 402,453 401,452 401,451 400,450 400,449 399,448 399,447 398,446 398,445 397,444 397,443 396,442 396,441 395,440 395,439 394,438 394,437 392,435 392,434 391,433 391,432 390,431 390,432 387,435 387,436 383,440 383,441 379,445 379,446 376,449 376,451 377,452 377,453 379,455 379,457 380,458 380,460 378,462 374,462 358,446 358,445 345,432 345,431 342,428 Z" fill="green" /><path d="M 330,396 327,399 327,400 324,403 324,404 320,408 320,409 317,412 317,413 315,415 315,416 313,418 313,419 310,422 310,423 308,425 308,426 307,427 307,428 305,430 305,431 303,433 303,434 302,435 302,436 301,437 301,438 299,440 299,441 298,442 298,443 297,444 297,445 296,446 296,447 295,448 295,449 294,450 294,452 293,453 293,454 292,455 292,457 291,458 291,460 290,461 290,464 289,465 289,467 288,468 288,472 287,473 287,479 286,480 286,490 287,491 287,495 288,496 288,497 289,498 289,499 290,500 290,501 292,503 294,503 295,504 301,504 302,503 306,503 307,502 309,502 310,501 312,501 313,500 315,500 316,499 317,499 318,498 319,498 320,497 321,497 322,496 323,496 324,495 325,495 328,492 329,492 331,490 332,490 336,486 337,486 344,479 345,479 345,477 342,474 342,473 333,464 333,463 329,459 328,459 324,463 322,463 320,461 320,454 321,453 321,451 322,450 322,449 323,448 323,447 324,446 324,445 325,444 325,443 327,441 327,440 329,438 329,437 332,434 332,433 334,431 334,430 337,427 337,426 341,422 341,421 344,418 344,417 345,416 345,414 341,410 341,409 338,406 338,405 335,402 335,401 331,397 331,396 Z" fill="green" /><path d="M 339,363 338,364 337,364 333,368 332,368 332,369 329,372 329,373 328,374 328,375 326,377 326,379 325,380 326,381 326,382 329,385 329,386 331,388 331,389 335,393 335,394 337,396 337,397 340,400 340,401 343,404 343,405 346,408 346,409 349,412 349,413 351,415 351,416 354,419 354,420 355,421 356,421 357,420 357,419 359,417 359,416 362,413 362,412 365,409 365,408 367,406 367,405 369,403 369,401 366,398 366,397 362,393 362,392 359,389 359,388 355,384 355,383 352,380 352,379 348,375 348,374 345,371 345,370 342,367 342,366 Z" fill="green" /><path d="M 389,355 389,356 388,357 388,358 386,360 386,361 385,362 385,363 384,364 384,365 383,366 383,367 382,368 382,369 381,370 381,371 380,372 380,373 379,374 379,375 378,376 378,377 376,379 376,380 375,381 375,382 376,383 376,384 377,385 377,395 376,396 376,398 375,399 375,400 374,401 374,402 371,405 371,406 369,408 369,409 367,411 367,412 365,414 365,415 363,417 363,418 361,420 361,421 359,423 359,424 357,426 357,427 355,429 355,430 352,433 369,450 370,450 370,449 373,446 373,445 377,441 377,440 381,436 381,435 385,431 385,430 390,425 390,424 391,423 391,422 393,420 393,419 394,418 394,417 395,416 395,415 396,414 396,413 397,412 397,411 398,410 398,408 399,407 399,403 400,402 400,397 401,396 401,381 400,380 400,375 399,374 399,372 398,371 398,369 397,368 397,366 396,365 396,364 394,362 394,361 393,360 393,359 Z" fill="green" /><path d="M 337,332 336,333 333,333 332,334 329,334 328,335 327,335 326,336 325,336 324,337 323,337 322,338 321,338 320,339 319,339 317,341 316,341 307,350 307,351 305,353 305,354 303,356 303,357 302,358 302,359 301,360 301,361 300,362 300,363 299,364 299,366 298,367 298,369 297,370 297,373 296,374 296,376 295,377 295,384 294,385 294,396 295,397 295,402 296,403 296,406 297,407 297,410 298,411 298,412 299,413 299,415 300,416 300,417 301,418 301,419 302,420 302,421 304,423 304,424 305,425 305,424 307,422 307,421 310,418 310,417 312,415 312,414 314,412 314,411 317,408 317,407 318,406 318,405 320,403 320,402 321,401 321,398 320,397 320,391 319,390 319,384 320,383 320,380 321,379 321,377 322,376 322,375 323,374 323,373 324,372 324,371 326,369 326,368 334,360 335,360 337,358 338,358 339,357 342,357 343,356 346,356 347,357 349,357 350,358 352,358 352,357 353,356 353,355 354,354 354,353 355,352 355,350 356,349 356,347 357,346 357,344 358,343 358,342 359,341 359,338 360,337 360,335 359,334 358,334 357,333 354,333 353,332 Z" fill="green" /><path d="M 599,329 600,329 603,332 604,332 605,333 605,334 606,334 611,339 611,340 614,343 614,344 616,346 616,347 618,349 618,350 619,351 619,352 620,353 620,354 621,355 621,356 622,357 622,358 623,359 623,361 624,362 624,364 625,365 625,367 626,368 626,372 627,373 627,377 628,378 628,389 629,390 629,394 628,395 628,401 627,402 627,405 626,406 626,408 625,409 625,410 624,411 624,412 622,414 622,415 620,417 620,418 613,425 612,425 609,428 608,428 606,430 605,430 604,431 603,431 602,432 601,432 600,433 598,433 597,434 596,434 595,435 593,435 592,436 589,436 588,437 583,437 582,438 568,438 567,437 557,437 556,436 551,436 550,435 547,435 546,434 542,434 541,433 539,433 538,432 536,432 535,431 534,431 533,430 531,430 530,429 529,429 528,428 527,428 526,427 525,427 524,426 523,426 522,425 521,425 520,424 519,424 517,422 516,422 514,420 513,420 511,418 510,418 508,416 507,416 504,413 503,413 499,409 498,409 493,404 492,404 486,398 485,398 480,393 479,393 472,386 471,386 468,383 467,383 464,380 463,380 461,378 460,378 459,377 458,377 457,376 456,376 455,375 454,375 453,374 452,374 451,373 450,373 449,372 447,372 446,371 442,371 441,370 432,370 431,371 429,371 428,372 427,372 426,373 425,373 424,374 423,374 423,375 431,375 432,376 435,376 436,377 439,377 440,378 441,378 442,379 444,379 445,380 446,380 447,381 448,381 449,382 450,382 452,384 453,384 454,385 455,385 458,388 459,388 462,391 463,391 467,395 468,395 480,407 481,407 499,425 500,425 506,431 507,431 511,435 512,435 515,438 516,438 518,440 519,440 521,442 522,442 524,444 525,444 526,445 527,445 528,446 529,446 530,447 531,447 532,448 533,448 534,449 535,449 536,450 537,450 538,451 540,451 541,452 543,452 544,453 546,453 547,454 549,454 550,455 553,455 554,456 558,456 559,457 565,457 566,458 588,458 589,457 593,457 594,456 597,456 598,455 600,455 601,454 602,454 603,453 605,453 607,451 608,451 609,450 610,450 612,448 613,448 615,446 616,446 624,438 624,437 627,434 627,433 629,431 629,430 630,429 630,428 631,427 631,426 632,425 632,424 633,423 633,422 634,421 634,419 635,418 635,417 636,416 636,413 637,412 637,409 638,408 638,405 639,404 639,397 640,396 640,380 639,379 639,372 638,371 638,368 637,367 637,364 636,363 636,361 635,360 635,358 634,357 634,356 633,355 633,354 632,353 632,352 631,351 631,350 630,349 630,348 628,346 628,345 624,341 624,340 621,337 620,337 618,335 617,335 615,333 614,333 613,332 612,332 611,331 609,331 608,330 604,330 603,329 Z" fill="green" /><path d="M 90,329 89,330 85,330 84,331 83,331 82,332 80,332 79,333 78,333 76,335 75,335 66,344 66,345 64,347 64,348 62,350 62,351 61,352 61,353 60,354 60,355 59,356 59,358 58,359 58,360 57,361 57,364 56,365 56,368 55,369 55,373 54,374 54,381 53,382 53,394 54,395 54,402 55,403 55,408 56,409 56,411 57,412 57,415 58,416 58,417 59,418 59,420 60,421 60,422 61,423 61,424 62,425 62,427 64,429 64,430 65,431 65,432 67,434 67,435 72,440 72,441 74,443 75,443 80,448 81,448 83,450 84,450 85,451 86,451 87,452 88,452 89,453 90,453 91,454 93,454 94,455 96,455 97,456 99,456 100,457 105,457 106,458 127,458 128,457 134,457 135,456 139,456 140,455 143,455 144,454 146,454 147,453 149,453 150,452 152,452 153,451 155,451 156,450 157,450 158,449 159,449 160,448 161,448 162,447 163,447 164,446 165,446 166,445 167,445 168,444 169,444 171,442 172,442 174,440 175,440 177,438 178,438 181,435 182,435 185,432 186,432 193,425 194,425 214,405 215,405 226,394 227,394 232,389 233,389 235,387 236,387 239,384 240,384 241,383 242,383 244,381 245,381 246,380 247,380 248,379 250,379 251,378 252,378 253,377 255,377 256,376 259,376 260,375 265,375 266,374 270,374 268,372 267,372 266,371 264,371 263,370 258,370 257,369 256,369 255,370 249,370 248,371 246,371 245,372 243,372 242,373 241,373 240,374 239,374 238,375 237,375 236,376 235,376 234,377 233,377 231,379 230,379 228,381 227,381 223,385 222,385 217,390 216,390 209,397 208,397 202,403 201,403 195,409 194,409 191,412 190,412 186,416 185,416 183,418 182,418 180,420 179,420 177,422 176,422 175,423 174,423 172,425 171,425 170,426 169,426 168,427 167,427 166,428 165,428 164,429 163,429 162,430 160,430 159,431 158,431 157,432 155,432 154,433 151,433 150,434 148,434 147,435 143,435 142,436 136,436 135,437 126,437 125,438 111,438 110,437 105,437 104,436 101,436 100,435 98,435 97,434 96,434 95,433 93,433 92,432 91,432 90,431 89,431 87,429 86,429 84,427 83,427 80,424 79,424 77,422 77,421 76,421 75,420 75,419 71,415 71,414 70,413 70,412 69,411 69,410 68,409 68,408 67,407 67,405 66,404 66,401 65,400 65,380 66,379 66,374 67,373 67,369 68,368 68,366 69,365 69,363 70,362 70,360 71,359 71,358 72,357 72,355 73,354 73,353 74,352 74,351 76,349 76,348 77,347 77,346 79,344 79,343 83,339 83,338 86,335 87,335 87,334 88,333 89,333 92,330 93,330 94,329 Z" fill="green" /><path d="M 339,282 338,283 334,283 333,284 331,284 330,285 328,285 327,286 326,286 325,287 324,287 322,289 321,289 319,291 318,291 311,298 311,299 309,301 309,302 308,303 308,304 307,305 307,306 306,307 306,308 305,309 305,310 304,311 304,314 303,315 303,319 302,320 302,330 303,331 303,335 304,336 304,338 305,339 305,341 306,342 306,344 307,345 308,344 308,343 314,337 315,337 318,334 319,334 320,333 321,333 322,332 323,332 324,331 326,331 327,330 328,330 328,327 327,326 327,323 328,322 328,319 330,317 330,316 333,313 334,313 335,312 336,312 337,311 339,311 340,310 343,310 344,309 349,309 350,310 352,310 353,311 354,311 355,312 356,312 358,314 358,315 361,318 361,319 362,320 362,321 363,322 363,324 364,325 364,327 365,328 365,335 364,336 364,341 363,342 363,345 362,346 362,347 361,348 361,350 360,351 360,352 359,353 359,354 357,356 357,357 356,358 356,359 354,361 354,362 353,363 353,364 352,365 352,366 350,368 350,370 353,373 353,374 356,377 356,378 359,381 359,382 362,385 362,386 365,389 365,388 366,387 366,386 368,384 368,383 369,382 369,381 370,380 370,379 371,378 371,377 373,375 373,374 374,373 374,372 375,371 375,370 376,369 376,368 377,367 377,366 379,364 379,363 380,362 380,361 381,360 381,359 382,358 382,357 384,355 384,354 385,353 385,352 386,351 386,350 387,349 387,347 388,346 388,343 389,342 389,339 390,338 390,321 389,320 389,316 388,315 388,312 387,311 387,310 386,309 386,307 385,306 385,305 383,303 383,302 382,301 382,300 373,291 372,291 370,289 369,289 368,288 367,288 365,286 363,286 362,285 361,285 360,284 358,284 357,283 353,283 352,282 Z" fill="green" /><path d="M 569,186 568,187 561,187 560,188 555,188 554,189 551,189 550,190 548,190 547,191 544,191 543,192 542,192 541,193 539,193 538,194 536,194 535,195 534,195 533,196 532,196 531,197 530,197 529,198 528,198 527,199 526,199 524,201 523,201 521,203 520,203 518,205 517,205 515,207 514,207 511,210 510,210 506,214 505,214 498,221 497,221 470,248 469,248 463,254 462,254 459,257 458,257 455,260 454,260 452,262 451,262 450,263 449,263 448,264 447,264 446,265 445,265 444,266 443,266 442,267 440,267 439,268 438,268 437,269 434,269 433,270 428,270 427,271 422,271 423,271 425,273 426,273 427,274 429,274 430,275 443,275 444,274 447,274 448,273 449,273 450,272 452,272 453,271 454,271 455,270 456,270 458,268 459,268 460,267 461,267 463,265 464,265 468,261 469,261 473,257 474,257 481,250 482,250 489,243 490,243 495,238 496,238 501,233 502,233 505,230 506,230 509,227 510,227 512,225 513,225 515,223 516,223 518,221 519,221 520,220 521,220 522,219 523,219 524,218 525,218 526,217 527,217 528,216 529,216 530,215 531,215 532,214 534,214 535,213 537,213 538,212 539,212 540,211 543,211 544,210 547,210 548,209 552,209 553,208 560,208 561,207 586,207 587,208 590,208 591,209 593,209 594,210 596,210 597,211 599,211 600,212 601,212 602,213 603,213 604,214 605,214 607,216 608,216 611,219 612,219 619,226 619,227 622,230 622,231 623,232 623,233 624,234 624,235 625,236 625,237 626,238 626,240 627,241 627,245 628,246 628,262 627,263 627,269 626,270 626,274 625,275 625,278 624,279 624,281 623,282 623,284 622,285 622,286 621,287 621,289 620,290 620,291 619,292 619,293 618,294 618,295 616,297 616,298 614,300 614,301 610,305 610,306 603,313 602,313 600,315 599,315 604,315 605,314 608,314 609,313 611,313 612,312 613,312 614,311 615,311 617,309 618,309 620,307 621,307 621,306 628,299 628,298 630,296 630,295 631,294 631,293 632,292 632,291 633,290 633,289 634,288 634,286 635,285 635,283 636,282 636,280 637,279 637,275 638,274 638,270 639,269 639,244 638,243 638,238 637,237 637,234 636,233 636,231 635,230 635,228 634,227 634,225 633,224 633,223 632,222 632,220 630,218 630,217 629,216 629,215 628,214 628,213 626,211 626,210 623,207 623,206 616,199 615,199 612,196 611,196 609,194 608,194 607,193 606,193 605,192 604,192 603,191 602,191 601,190 599,190 598,189 596,189 595,188 592,188 591,187 585,187 584,186 Z" fill="green" /><path d="M 109,186 108,187 102,187 101,188 98,188 97,189 95,189 94,190 92,190 91,191 90,191 89,192 88,192 87,193 86,193 85,194 84,194 83,195 82,195 80,197 79,197 69,207 69,208 66,211 66,212 64,214 64,215 63,216 63,217 62,218 62,219 61,220 61,221 60,222 60,223 59,224 59,226 58,227 58,229 57,230 57,232 56,233 56,236 55,237 55,241 54,242 54,250 53,251 53,262 54,263 54,270 55,271 55,276 56,277 56,280 57,281 57,283 58,284 58,286 59,287 59,288 60,289 60,290 61,291 61,292 62,293 62,294 63,295 63,296 65,298 65,299 68,302 68,303 72,307 73,307 76,310 77,310 78,311 79,311 80,312 81,312 82,313 84,313 85,314 87,314 88,315 93,315 91,313 90,313 81,304 81,303 78,300 78,299 77,298 77,297 75,295 75,294 74,293 74,292 73,291 73,290 72,289 72,288 71,287 71,285 70,284 70,283 69,282 69,280 68,279 68,276 67,275 67,271 66,270 66,265 65,264 65,244 66,243 66,241 67,240 67,237 68,236 68,235 69,234 69,233 71,231 71,230 73,228 73,227 82,218 83,218 86,215 87,215 88,214 89,214 90,213 91,213 92,212 93,212 94,211 95,211 96,210 98,210 99,209 101,209 102,208 106,208 107,207 133,207 134,208 140,208 141,209 145,209 146,210 149,210 150,211 153,211 154,212 156,212 157,213 159,213 160,214 161,214 162,215 163,215 164,216 166,216 167,217 168,217 170,219 171,219 172,220 173,220 174,221 175,221 177,223 178,223 179,224 180,224 183,227 184,227 187,230 188,230 191,233 192,233 196,237 197,237 203,243 204,243 210,249 211,249 218,256 219,256 224,261 225,261 228,264 229,264 231,266 232,266 234,268 235,268 236,269 237,269 238,270 239,270 240,271 241,271 242,272 244,272 245,273 247,273 248,274 251,274 252,275 261,275 262,274 264,274 265,273 267,273 269,271 270,271 270,270 263,270 262,269 259,269 258,268 255,268 254,267 252,267 251,266 250,266 249,265 248,265 247,264 246,264 245,263 244,263 243,262 242,262 240,260 239,260 238,259 237,259 234,256 233,256 230,253 229,253 221,245 220,245 200,225 199,225 197,223 197,222 196,222 188,214 187,214 183,210 182,210 179,207 178,207 176,205 175,205 173,203 172,203 170,201 169,201 168,200 167,200 165,198 164,198 163,197 162,197 161,196 159,196 157,194 155,194 154,193 152,193 151,192 150,192 149,191 146,191 145,190 142,190 141,189 139,189 138,188 133,188 132,187 124,187 123,186 Z" fill="green" /><path d="M 401,29 400,30 394,30 393,31 390,31 389,32 387,32 386,33 384,33 383,34 381,34 380,35 379,35 378,36 377,36 376,37 375,37 374,38 373,38 371,40 370,40 367,43 366,43 360,49 360,50 358,52 358,53 357,54 357,55 356,56 356,57 355,58 355,60 354,61 354,65 353,66 353,69 355,67 355,66 365,56 366,56 369,53 370,53 371,52 372,52 374,50 375,50 376,49 377,49 378,48 379,48 380,47 381,47 382,46 384,46 385,45 387,45 388,44 390,44 391,43 394,43 395,42 399,42 400,41 407,41 408,40 421,40 422,41 427,41 428,42 430,42 431,43 432,43 433,44 434,44 435,45 436,45 437,46 438,46 440,48 441,48 451,58 451,59 453,61 453,62 454,63 454,64 455,65 455,66 456,67 456,68 457,69 457,70 458,71 458,72 459,73 459,76 460,77 460,80 461,81 461,85 462,86 462,100 461,101 461,111 460,112 460,117 459,118 459,122 458,123 458,126 457,127 457,129 456,130 456,132 455,133 455,135 454,136 454,137 453,138 453,140 451,142 451,144 449,146 449,147 448,148 448,149 447,150 447,151 445,153 445,154 443,156 443,157 441,159 441,160 438,163 438,164 434,168 434,169 430,173 430,174 424,180 424,181 417,188 417,189 411,195 411,196 406,201 406,202 404,204 404,205 402,207 402,208 400,210 400,211 399,212 399,213 398,214 398,215 397,216 397,218 396,219 396,220 395,221 395,224 394,225 394,230 393,231 393,232 394,233 394,239 395,240 395,241 396,242 396,243 397,244 397,245 398,246 398,241 399,240 399,235 400,234 400,231 401,230 401,229 402,228 402,226 403,225 403,224 404,223 404,222 405,221 405,220 406,219 406,218 407,217 407,216 409,214 409,213 411,211 411,210 415,206 415,205 420,200 420,199 443,176 443,175 453,165 453,164 457,160 457,159 461,155 461,154 463,152 463,151 465,149 465,148 466,147 466,146 468,144 468,143 469,142 469,141 471,139 471,138 472,137 472,136 473,135 473,133 474,132 474,131 475,130 475,129 476,128 476,126 477,125 477,123 478,122 478,120 479,119 479,116 480,115 480,111 481,110 481,104 482,103 482,81 481,80 481,76 480,75 480,72 479,71 479,69 478,68 478,67 477,66 477,64 476,63 476,62 475,61 475,60 473,58 473,57 470,54 470,53 461,44 460,44 457,41 456,41 455,40 454,40 452,38 451,38 450,37 449,37 448,36 447,36 446,35 444,35 443,34 441,34 440,33 438,33 437,32 435,32 434,31 430,31 429,30 425,30 424,29 Z" fill="green" /><path d="M 269,29 268,30 263,30 262,31 259,31 258,32 255,32 254,33 252,33 251,34 249,34 248,35 247,35 246,36 245,36 244,37 243,37 242,38 241,38 240,39 239,39 238,40 237,40 235,42 234,42 231,45 230,45 223,52 223,53 220,56 220,57 218,59 218,60 217,61 217,62 216,63 216,64 215,65 215,66 214,67 214,69 213,70 213,72 212,73 212,76 211,77 211,84 210,85 210,99 211,100 211,108 212,109 212,113 213,114 213,117 214,118 214,121 215,122 215,124 216,125 216,127 217,128 217,129 218,130 218,132 219,133 219,134 220,135 220,136 221,137 221,138 222,139 222,140 223,141 223,142 225,144 225,145 226,146 226,147 228,149 228,150 230,152 230,153 233,156 233,157 237,161 237,162 242,167 242,168 262,188 262,189 274,201 274,202 279,207 279,208 282,211 282,212 284,214 284,215 286,217 286,218 287,219 287,220 288,221 288,222 289,223 289,224 290,225 290,227 291,228 291,230 292,231 292,232 293,233 293,238 294,239 294,246 296,244 296,243 297,242 297,241 298,240 298,237 299,236 299,228 298,227 298,223 297,222 297,220 296,219 296,217 295,216 295,215 294,214 294,213 292,211 292,210 291,209 291,208 289,206 289,205 287,203 287,202 284,199 284,198 277,191 277,190 270,183 270,182 264,176 264,175 259,170 259,169 255,165 255,164 253,162 253,161 250,158 250,157 248,155 248,154 246,152 246,151 245,150 245,149 243,147 243,146 242,145 242,144 241,143 241,142 240,141 240,140 239,139 239,137 238,136 238,135 237,134 237,132 236,131 236,129 235,128 235,126 234,125 234,121 233,120 233,116 232,115 232,109 231,108 231,82 232,81 232,78 233,77 233,75 234,74 234,72 235,71 235,69 236,68 236,67 237,66 237,65 239,63 239,62 240,61 240,60 244,56 244,55 250,49 251,49 254,46 255,46 256,45 257,45 258,44 259,44 260,43 261,43 262,42 265,42 266,41 270,41 271,40 285,40 286,41 292,41 293,42 297,42 298,43 301,43 302,44 305,44 306,45 307,45 308,46 310,46 311,47 312,47 313,48 314,48 315,49 316,49 317,50 318,50 319,51 320,51 322,53 323,53 325,55 326,55 330,59 331,59 335,63 335,64 339,68 339,69 339,64 338,63 338,60 337,59 337,57 336,56 336,55 335,54 335,53 333,51 333,50 324,41 323,41 321,39 320,39 319,38 318,38 316,36 314,36 313,35 312,35 311,34 310,34 309,33 307,33 306,32 303,32 302,31 299,31 298,30 293,30 292,29 Z" fill="green" /></svg>